<svg width="2001" height="568" viewBox="0 0 2001 568" fill="none" xmlns="http://www.w3.org/2000/svg">
<path d="M333.582 220.2C350.982 207.6 351.582 181.8 334.182 168.6C322.782 159.6 310.182 151.8 297.582 147C273.582 136.8 247.182 132 219.582 132C187.182 132 157.782 136.8 131.382 147.6C104.382 157.8 81.582 172.2 61.782 191.4C42.582 210.6 27.582 234 16.782 261C5.98203 288 0.582032 318 0.582032 351.6C0.582032 384 5.98203 413.4 16.782 439.8C27.582 466.2 42.582 489 61.782 508.2C81.582 526.8 104.382 541.8 131.382 552C157.782 562.2 187.182 567.6 219.582 567.6C249.582 567.6 278.382 561.6 305.382 549.6C320.382 543.6 334.182 534.6 346.782 523.8C362.382 510 361.182 484.8 344.382 472.8L336.582 466.8C323.982 457.8 306.582 459 295.782 469.8C286.782 477.6 278.382 484.2 268.782 488.4C253.182 496.8 236.382 500.4 219.582 500.4C198.582 500.4 178.782 496.8 161.382 489C143.982 481.2 129.582 470.4 116.982 456.6C104.382 443.4 94.782 427.2 87.582 408C80.982 389.4 77.382 369 77.382 346.8C77.382 325.8 80.982 306.6 87.582 288.6C94.782 270.6 104.382 255 116.982 241.8C129.582 228 143.982 217.8 161.382 210C178.782 202.2 198.582 198.6 219.582 198.6C234.582 198.6 248.382 201 262.782 207C271.782 210 280.782 215.4 289.782 223.2C301.182 232.2 317.382 232.2 328.782 223.8L333.582 220.2ZM791.99 527.4L713.99 394.2C708.59 384.6 713.39 372.6 723.59 369C731.39 366 738.59 362.4 745.19 358.8C760.79 349.8 772.79 337.8 781.79 321.6C790.79 305.4 794.99 284.4 794.99 258.6C794.99 235.2 790.79 216 782.39 200.4C773.99 185.4 763.19 172.8 748.79 163.8C734.99 154.8 718.19 148.2 700.19 144C681.59 140.4 662.39 138.6 641.99 138.6H500.99C487.19 138.6 478.79 153 485.99 165L560.99 291.6C567.59 303 559.19 318 545.39 318L520.79 317.4C510.59 317.4 502.79 325.2 502.79 334.8V535.2C502.79 544.8 510.59 552.6 520.19 552.6H559.19C568.79 552.6 576.59 544.8 576.59 535.2V399C576.59 389.4 584.39 381.6 593.99 381.6H605.39C611.39 381.6 617.39 384.6 620.39 390L709.79 544.8C712.79 550.2 718.79 553.8 724.79 553.8H776.99C790.19 553.8 798.59 538.8 791.99 527.4ZM614.39 228C607.19 216.6 615.59 201.6 629.39 201.6C638.99 201.6 649.19 202.2 659.99 203.4C670.19 204.6 679.79 207 688.79 211.2C697.19 215.4 704.39 221.4 709.79 228.6C715.19 236.4 717.59 246.6 717.59 259.8C717.59 273.6 714.59 284.4 708.59 292.2C702.59 300 694.79 306 685.19 309.6C683.99 310.2 682.79 310.8 680.99 311.4C673.19 314.4 664.19 311.4 659.99 304.2L614.39 228ZM1144.09 138H953.895C935.295 138 920.895 153 920.895 171.6C920.895 190.2 935.295 205.2 953.895 205.2H1144.09C1162.69 205.2 1177.69 190.2 1177.69 171.6C1177.69 153 1162.69 138 1144.09 138ZM1027.69 380.4H1143.49C1162.09 380.4 1177.09 366 1177.09 347.4C1177.09 328.8 1162.09 313.8 1143.49 313.8L953.895 314.4C935.295 315 920.895 329.4 920.895 348V519.6C920.895 537.6 935.295 552.6 953.895 552.6H1143.49C1162.09 552.6 1177.09 537.6 1177.09 519.6C1177.09 501 1162.09 486 1143.49 486H1027.69C1009.09 486 994.095 471 994.095 453V414C994.095 395.4 1009.09 380.4 1027.69 380.4ZM1024.09 101.4C1027.09 101.4 1029.49 101.4 1032.49 100.8L1142.89 75C1162.09 70.2 1173.49 51 1169.29 31.8C1164.49 12.6 1145.29 0.599958 1126.09 5.39997L1016.29 31.2C997.095 36 985.095 55.2 989.295 74.4C993.495 90.6 1007.89 101.4 1024.09 101.4ZM1303.12 360.6V532.2C1303.12 550.8 1317.52 565.8 1336.12 565.8H1525.72C1544.32 565.8 1559.32 550.8 1559.32 532.2C1559.32 513.6 1544.32 498.6 1525.72 498.6H1409.92C1391.32 498.6 1376.32 484.2 1376.32 465.6V426.6C1376.32 408.6 1391.32 393.6 1409.92 393.6H1525.72C1544.32 393.6 1559.32 378.6 1559.32 360C1559.32 342 1544.32 327 1525.72 327L1336.12 327.6C1317.52 327.6 1303.12 342.6 1303.12 360.6ZM1336.12 217.8H1526.32C1544.92 217.8 1559.92 202.8 1559.92 184.2C1559.92 166.2 1544.92 151.2 1526.32 151.2H1336.12C1317.52 151.2 1303.12 166.2 1303.12 184.2C1303.12 202.8 1317.52 217.8 1336.12 217.8ZM1993.75 527.4L1915.75 394.2C1910.35 384.6 1915.15 372.6 1925.35 369C1933.15 366 1940.35 362.4 1946.95 358.8C1962.55 349.8 1974.55 337.8 1983.55 321.6C1992.55 305.4 1996.75 284.4 1996.75 258.6C1996.75 235.2 1992.55 216 1984.15 200.4C1975.75 185.4 1964.95 172.8 1950.55 163.8C1936.75 154.8 1919.95 148.2 1901.95 144C1883.35 140.4 1864.15 138.6 1843.75 138.6H1702.75C1688.95 138.6 1680.55 153 1687.75 165L1762.75 291.6C1769.35 303 1760.95 318 1747.15 318L1722.55 317.4C1712.35 317.4 1704.55 325.2 1704.55 334.8V535.2C1704.55 544.8 1712.35 552.6 1721.95 552.6H1760.95C1770.55 552.6 1778.35 544.8 1778.35 535.2V399C1778.35 389.4 1786.15 381.6 1795.75 381.6H1807.15C1813.15 381.6 1819.15 384.6 1822.15 390L1911.55 544.8C1914.55 550.2 1920.55 553.8 1926.55 553.8H1978.75C1991.95 553.8 2000.35 538.8 1993.75 527.4ZM1816.15 228C1808.95 216.6 1817.35 201.6 1831.15 201.6C1840.75 201.6 1850.95 202.2 1861.75 203.4C1871.95 204.6 1881.55 207 1890.55 211.2C1898.95 215.4 1906.15 221.4 1911.55 228.6C1916.95 236.4 1919.35 246.6 1919.35 259.8C1919.35 273.6 1916.35 284.4 1910.35 292.2C1904.35 300 1896.55 306 1886.95 309.6C1885.75 310.2 1884.55 310.8 1882.75 311.4C1874.95 314.4 1865.95 311.4 1861.75 304.2L1816.15 228Z" fill="#7CE0E7"/>
</svg>
